<?xml version="1.0" encoding="UTF-8" standalone="no"?>
<!-- Created with Inkscape (http://www.inkscape.org/) -->

<svg
   xmlns:dc="http://purl.org/dc/elements/1.1/"
   xmlns:cc="http://creativecommons.org/ns#"
   xmlns:rdf="http://www.w3.org/1999/02/22-rdf-syntax-ns#"
   xmlns:svg="http://www.w3.org/2000/svg"
   xmlns="http://www.w3.org/2000/svg"
   xmlns:sodipodi="http://sodipodi.sourceforge.net/DTD/sodipodi-0.dtd"
   xmlns:inkscape="http://www.inkscape.org/namespaces/inkscape"
   width="182.25746mm"
   height="33.080723mm"
   viewBox="0 0 645.79415 117.21516"
   id="svg5202"
   version="1.1"
   inkscape:version="0.91 r13725"
   sodipodi:docname="devoxx.svg">
  <defs
     id="defs5204" />
  <sodipodi:namedview
     id="base"
     pagecolor="#ffffff"
     bordercolor="#666666"
     borderopacity="1.0"
     inkscape:pageopacity="0.0"
     inkscape:pageshadow="2"
     inkscape:zoom="1.4"
     inkscape:cx="312.63587"
     inkscape:cy="-63.275401"
     inkscape:document-units="px"
     inkscape:current-layer="layer1"
     showgrid="false"
     fit-margin-top="5"
     fit-margin-left="5"
     fit-margin-right="5"
     fit-margin-bottom="5"
     inkscape:window-width="1563"
     inkscape:window-height="979"
     inkscape:window-x="-8"
     inkscape:window-y="-8"
     inkscape:window-maximized="1" />
  <metadata
     id="metadata5207">
    <rdf:RDF>
      <cc:Work
         rdf:about="">
        <dc:format>image/svg+xml</dc:format>
        <dc:type
           rdf:resource="http://purl.org/dc/dcmitype/StillImage" />
        <dc:title />
      </cc:Work>
    </rdf:RDF>
  </metadata>
  <g
     inkscape:label="Layer 1"
     inkscape:groupmode="layer"
     id="layer1"
     transform="translate(-54.245785,-25.183192)">
    <path
       inkscape:connector-curvature="0"
       id="path3097"
       style="color:#000000;font-style:normal;font-variant:normal;font-weight:500;font-stretch:normal;font-size:72px;line-height:125%;font-family:QTypeSquare-Book;-inkscape-font-specification:'QTypeSquare-Book Medium';text-indent:0;text-align:start;text-decoration:none;text-decoration-line:none;letter-spacing:0px;word-spacing:0px;text-transform:none;direction:ltr;block-progression:tb;writing-mode:lr-tb;text-anchor:start;visibility:visible;fill:#000000;fill-opacity:1;fill-rule:nonzero;stroke:none;stroke-width:1px;marker:none"
       d="m 71.96232,43.360779 0,81.077931 64.80971,0 c 10.26963,0 16.37609,-1.70179 21.23316,-5.8347 4.71848,-4.01133 6.5226,-9.23826 6.5226,-18.47653 l 0,-32.455481 c 0,-9.23825 -1.80412,-14.46518 -6.5226,-18.47653 -4.85707,-4.13289 -10.96353,-5.83469 -21.23316,-5.83469 l -64.80971,0 m 14.84933,12.15561 46.21354,0 c 9.02043,0 11.65742,0.48622 13.87769,2.43112 2.22046,2.06645 2.77558,4.61915 2.77558,12.15561 l 0,27.59324 c 0,7.536481 -0.55512,10.089161 -2.77558,12.155611 -2.22027,1.9449 -4.85726,2.43112 -13.87769,2.43112 l -46.21354,0 0,-56.766701" />
    <path
       inkscape:connector-curvature="0"
       id="path3099"
       style="color:#000000;font-style:normal;font-variant:normal;font-weight:500;font-stretch:normal;font-size:72px;line-height:125%;font-family:QTypeSquare-Book;-inkscape-font-specification:'QTypeSquare-Book Medium';text-indent:0;text-align:start;text-decoration:none;text-decoration-line:none;letter-spacing:0px;word-spacing:0px;text-transform:none;direction:ltr;block-progression:tb;writing-mode:lr-tb;text-anchor:start;visibility:visible;fill:#000000;fill-opacity:1;fill-rule:nonzero;stroke:none;stroke-width:1px;marker:none"
       d="m 271.71719,55.516389 0,-12.15561 -80.49182,0 0,81.077931 84.23884,0 0,-12.15562 -69.38931,0 0,-22.244771 63.83816,0 1.80413,-12.15561 -65.64229,0 0,-22.36632 65.64229,0" />
    <path
       inkscape:connector-curvature="0"
       id="path3101"
       style="color:#000000;font-style:normal;font-variant:normal;font-weight:500;font-stretch:normal;font-size:72px;line-height:125%;font-family:QTypeSquare-Book;-inkscape-font-specification:'QTypeSquare-Book Medium';text-indent:0;text-align:start;text-decoration:none;text-decoration-line:none;letter-spacing:0px;word-spacing:0px;text-transform:none;direction:ltr;block-progression:tb;writing-mode:lr-tb;text-anchor:start;visibility:visible;fill:#000000;fill-opacity:1;fill-rule:nonzero;stroke:none;stroke-width:1px;marker:none"
       d="m 342.97144,108.15019 -40.6622,-64.789411 -16.65346,0 52.31962,81.321041 10.13086,0 52.31961,-81.321041 -16.65346,0 -40.80097,64.789411" />
    <path
       inkscape:connector-curvature="0"
       id="path3103"
       style="color:#000000;font-style:normal;font-variant:normal;font-weight:500;font-stretch:normal;font-size:72px;line-height:125%;font-family:QTypeSquare-Book;-inkscape-font-specification:'QTypeSquare-Book Medium';text-indent:0;text-align:start;text-decoration:none;text-decoration-line:none;letter-spacing:0px;word-spacing:0px;text-transform:none;direction:ltr;block-progression:tb;writing-mode:lr-tb;text-anchor:start;visibility:visible;fill:#000000;fill-opacity:1;fill-rule:nonzero;stroke:none;stroke-width:1px;marker:none"
       d="m 506.97983,67.671999 c 0,-9.23825 -1.80414,-14.46518 -6.5226,-18.47653 -4.85726,-4.13289 -10.96355,-5.83469 -21.23316,-5.83469 l -37.05395,0 c -10.26963,0 -16.37592,1.7018 -21.23316,5.83469 -4.71848,4.01135 -6.52261,9.23828 -6.52261,18.47653 l 0,32.455481 c 0,9.23827 1.80413,14.4652 6.52261,18.47653 4.85724,4.13291 10.96353,5.8347 21.23316,5.8347 l 37.05395,0 c 10.26961,0 16.3759,-1.70179 21.23316,-5.8347 4.71846,-4.01133 6.5226,-9.23826 6.5226,-18.47653 l 0,-32.455481 m -77.71616,2.43112 c 0,-7.53646 0.55513,-10.08916 2.7756,-12.15561 2.22044,-1.9449 4.85725,-2.43112 13.87786,-2.43112 l 29.55989,0 c 9.02062,0 11.65744,0.48622 13.8779,2.43112 2.22044,2.06645 2.77556,4.61915 2.77556,12.15561 l 0,27.59324 c 0,7.536481 -0.55512,10.089161 -2.77556,12.155611 -2.22046,1.9449 -4.85728,2.43112 -13.8779,2.43112 l -29.55989,0 c -9.02061,0 -11.65742,-0.48622 -13.87786,-2.43112 -2.22047,-2.06645 -2.7756,-4.61913 -2.7756,-12.155611 l 0,-27.59324" />
    <path
       inkscape:connector-curvature="0"
       id="path3105"
       style="color:#000000;font-style:normal;font-variant:normal;font-weight:500;font-stretch:normal;font-size:72px;line-height:125%;font-family:QTypeSquare-Book;-inkscape-font-specification:'QTypeSquare-Book Medium';text-indent:0;text-align:start;text-decoration:none;text-decoration-line:none;letter-spacing:0px;word-spacing:0px;text-transform:none;direction:ltr;block-progression:tb;writing-mode:lr-tb;text-anchor:start;visibility:visible;fill:#000000;fill-opacity:1;fill-rule:nonzero;stroke:none;stroke-width:1px;marker:none"
       d="m 522.73339,43.360779 37.47028,39.74885 -39.27441,41.329081 17.62491,0 29.55989,-32.820161 29.55989,32.820161 17.62491,0 -39.2744,-41.329081 37.47028,-39.74885 -17.20857,0 -28.17211,30.99681 -28.1721,-30.99681 -17.20857,0" />
    <path
       inkscape:connector-curvature="0"
       style="color:#000000;font-style:normal;font-variant:normal;font-weight:500;font-stretch:normal;font-size:72px;line-height:125%;font-family:QTypeSquare-Book;-inkscape-font-specification:'QTypeSquare-Book Medium';text-indent:0;text-align:start;text-decoration:none;text-decoration-line:none;letter-spacing:0px;word-spacing:0px;text-transform:none;direction:ltr;block-progression:tb;writing-mode:lr-tb;text-anchor:start;visibility:visible;fill:#f4a947;fill-opacity:1;fill-rule:nonzero;stroke:none;stroke-width:1px;marker:none"
       d="m 578.83846,62.540429 8.28125,-9.09375 -9.1875,-10.09375 -17.1875,0 18.09375,19.1875 z"
       id="path3155" />
    <path
       inkscape:connector-curvature="0"
       style="color:#000000;font-style:normal;font-variant:normal;font-weight:500;font-stretch:normal;font-size:72px;line-height:125%;font-family:QTypeSquare-Book;-inkscape-font-specification:'QTypeSquare-Book Medium';text-indent:0;text-align:start;text-decoration:none;text-decoration-line:none;letter-spacing:0px;word-spacing:0px;text-transform:none;direction:ltr;block-progression:tb;writing-mode:lr-tb;text-anchor:start;visibility:visible;fill:#f4a947;fill-opacity:1;fill-rule:nonzero;stroke:none;stroke-width:1px;marker:none"
       d="m 634.27596,43.352929 -28.15625,31 -10.71875,-11.78125 -8.28125,8.75 11.09375,11.78125 -11.09375,11.6875 -8.28125,8.718751 -19.90625,20.9375 17.625,0 10.5625,-11.75 8.28125,-9.1875 10.71875,-11.906251 29.5625,32.843751 17.625,0 -39.28125,-41.343751 37.46875,-39.75 -17.21875,0 z"
       id="path3151" />
    <g
       id="flowRoot3158"
       style="color:#000000;font-style:normal;font-variant:normal;font-weight:500;font-stretch:normal;font-size:medium;line-height:125%;font-family:QTypeSquare-Book;-inkscape-font-specification:'QTypeSquare-Book Medium';text-indent:0;text-align:start;text-decoration:none;text-decoration-line:none;letter-spacing:0px;word-spacing:0px;text-transform:none;direction:ltr;block-progression:tb;writing-mode:lr-tb;baseline-shift:baseline;text-anchor:start;display:inline;overflow:visible;visibility:visible;fill:#ffffff;fill-opacity:1;fill-rule:nonzero;stroke:none;stroke-width:1px;marker:none;enable-background:accumulate"
       transform="matrix(1.4552264,0,0,1.4552264,1171.3014,-596.77541)">
      <path
         inkscape:connector-curvature="0"
         id="path7238"
         style="font-style:normal;font-variant:normal;font-weight:bold;font-stretch:normal;font-family:QTypeSquare-Bold;-inkscape-font-specification:'QTypeSquare-Bold Bold';fill:#ffffff"
         d="m -349.756,441.35887 3.072,0 0,-1.764 -8.16,0 0,1.764 3.084,0 0,6.24 2.004,0 0,-6.24 z" />
      <path
         inkscape:connector-curvature="0"
         id="path7240"
         style="font-style:normal;font-variant:normal;font-weight:bold;font-stretch:normal;font-family:QTypeSquare-Bold;-inkscape-font-specification:'QTypeSquare-Bold Bold';fill:#ffffff"
         d="m -340.67106,442.63087 -2.664,-3.06 -2.004,0 0,8.028 2.004,0 0,-5.28 2.664,2.964 2.652,-2.964 0,5.28 2.004,0 0,-8.028 -2.004,0 -2.652,3.06 z" />
    </g>
  </g>
</svg>
